<?xml version="1.0" encoding="UTF-8" standalone="no"?><!DOCTYPE svg PUBLIC "-//W3C//DTD SVG 1.1//EN" "http://www.w3.org/Graphics/SVG/1.1/DTD/svg11.dtd"><svg width="100%" height="100%" viewBox="0 0 454 450" version="1.1" xmlns="http://www.w3.org/2000/svg" xmlns:xlink="http://www.w3.org/1999/xlink" xml:space="preserve" xmlns:serif="http://www.serif.com/" style="fill-rule:evenodd;clip-rule:evenodd;stroke-linecap:round;stroke-linejoin:round;stroke-miterlimit:1.5;"><path d="M452.737,112.577l-3.913,224.153c-1.08,61.857 -52.176,112.077 -114.033,112.077l-224.153,0c-61.857,0 -111.2,-50.22 -110.12,-112.077l3.913,-224.153c1.08,-61.857 52.176,-112.077 114.033,-112.077l224.153,0c61.857,0 111.2,50.22 110.12,112.077Zm-76.397,261.806l-17.708,-299.459l-81.789,0l-49.907,206.419l-45.73,-206.419l-80.923,0l-28.595,299.459l61.882,0l8.591,-120.303c1.496,-19.618 2.449,-41.111 2.856,-64.479c0.383,-21.926 0.151,-41.688 -0.696,-59.286l50.392,212.045l60.151,0l54.325,-211.612c-0.394,6.058 -0.71,15.867 -0.946,29.427c-0.443,25.388 0.028,56.257 1.413,92.607l4.369,121.601l62.315,0Z" style="fill:#f63919;stroke:#155487;stroke-width:1px;"/></svg>