<?xml version="1.0" encoding="UTF-8" standalone="no"?><!DOCTYPE svg PUBLIC "-//W3C//DTD SVG 1.1//EN" "http://www.w3.org/Graphics/SVG/1.1/DTD/svg11.dtd"><svg width="100%" height="100%" viewBox="0 0 2197 480" version="1.1" xmlns="http://www.w3.org/2000/svg" xmlns:xlink="http://www.w3.org/1999/xlink" xml:space="preserve" xmlns:serif="http://www.serif.com/" style="fill-rule:evenodd;clip-rule:evenodd;stroke-linecap:round;stroke-linejoin:round;stroke-miterlimit:1.5;"><g transform="matrix(432.743935,0,0,432.743935,2194.877238,306.382706)"></g><text x="-17.31px" y="306.383px" style="font-family:'FiraSans-SemiBold', 'Fira Sans', sans-serif;font-weight:600;font-size:432.744px;fill:#f63919;">M<tspan x="317.634px " y="306.383px ">O</tspan>NOPOL<tspan x="1942.588px " y="306.383px ">Y</tspan></text><g transform="matrix(150.857965,0,0,150.857965,513.569207,477.647658)"><path d="M0.11,-0c-0.007,-0 -0.012,-0.002 -0.017,-0.006c-0.004,-0.004 -0.006,-0.01 -0.006,-0.017l0,-0.653c-0,-0.007 0.002,-0.013 0.006,-0.017c0.004,-0.004 0.01,-0.006 0.017,-0.006l0.227,0c0.069,0 0.125,0.01 0.166,0.031c0.042,0.021 0.072,0.051 0.092,0.092c0.019,0.04 0.03,0.09 0.03,0.148c0.001,0.03 0.001,0.056 0.001,0.079c0,0.023 -0,0.049 -0.001,0.078c-0.002,0.062 -0.012,0.112 -0.031,0.153c-0.019,0.04 -0.049,0.07 -0.09,0.09c-0.041,0.02 -0.095,0.029 -0.163,0.029l-0.232,-0Zm0.075,-0.085l0.152,0c0.046,0 0.083,-0.006 0.11,-0.019c0.027,-0.013 0.047,-0.033 0.06,-0.061c0.012,-0.028 0.019,-0.065 0.02,-0.111c0.001,-0.02 0.001,-0.037 0.001,-0.052c0,-0.015 0,-0.03 0,-0.045c-0,-0.015 -0,-0.032 -0.001,-0.052c-0.001,-0.065 -0.017,-0.113 -0.046,-0.143c-0.03,-0.031 -0.079,-0.046 -0.148,-0.046l-0.147,0l0,0.529Z" style="fill:#fff;fill-rule:nonzero;"/></g><g transform="matrix(150.857965,0,0,150.857965,632.897857,477.647658)"><path d="M0.11,-0c-0.007,-0 -0.012,-0.002 -0.017,-0.006c-0.004,-0.004 -0.006,-0.01 -0.006,-0.017l0,-0.654c-0,-0.007 0.002,-0.012 0.006,-0.017c0.004,-0.004 0.01,-0.006 0.017,-0.006l0.054,0c0.007,0 0.012,0.002 0.017,0.006c0.004,0.004 0.006,0.01 0.006,0.017l0,0.654c0,0.007 -0.002,0.012 -0.006,0.017c-0.004,0.004 -0.01,0.006 -0.017,0.006l-0.054,-0Z" style="fill:#fff;fill-rule:nonzero;"/></g><g transform="matrix(150.857965,0,0,150.857965,689.469594,477.647658)"><path d="M0.295,0.01c-0.034,0 -0.067,-0.004 -0.097,-0.013c-0.03,-0.009 -0.057,-0.021 -0.081,-0.039c-0.024,-0.017 -0.042,-0.039 -0.056,-0.066c-0.014,-0.027 -0.021,-0.058 -0.023,-0.094c0,-0.006 0.002,-0.011 0.006,-0.016c0.004,-0.004 0.009,-0.007 0.016,-0.007l0.054,0c0.008,0 0.013,0.002 0.017,0.006c0.004,0.004 0.007,0.01 0.008,0.017c0.003,0.03 0.012,0.054 0.027,0.072c0.015,0.018 0.033,0.032 0.056,0.04c0.023,0.008 0.048,0.013 0.074,0.013c0.051,0 0.09,-0.017 0.117,-0.05c0.027,-0.033 0.04,-0.078 0.04,-0.133l0,-0.355l-0.356,0c-0.007,0 -0.012,-0.002 -0.017,-0.006c-0.004,-0.004 -0.006,-0.01 -0.006,-0.017l0,-0.041c0,-0.007 0.002,-0.012 0.006,-0.017c0.004,-0.004 0.01,-0.006 0.017,-0.006l0.431,0c0.007,0 0.013,0.002 0.017,0.006c0.004,0.004 0.006,0.01 0.006,0.017l0,0.421c0,0.054 -0.01,0.101 -0.031,0.141c-0.021,0.04 -0.05,0.071 -0.088,0.092c-0.038,0.022 -0.084,0.033 -0.139,0.033Z" style="fill:#fff;fill-rule:nonzero;"/></g><g transform="matrix(150.857965,0,0,150.857965,800.501056,477.647658)"><path d="M0.11,-0c-0.007,-0 -0.012,-0.002 -0.017,-0.006c-0.004,-0.004 -0.006,-0.01 -0.006,-0.017l0,-0.654c-0,-0.007 0.002,-0.012 0.006,-0.017c0.004,-0.004 0.01,-0.006 0.017,-0.006l0.054,0c0.007,0 0.012,0.002 0.017,0.006c0.004,0.004 0.006,0.01 0.006,0.017l0,0.654c0,0.007 -0.002,0.012 -0.006,0.017c-0.004,0.004 -0.01,0.006 -0.017,0.006l-0.054,-0Z" style="fill:#fff;fill-rule:nonzero;"/></g><g transform="matrix(150.857965,0,0,150.857965,857.072793,477.647658)"><path d="M0.263,-0c-0.007,-0 -0.012,-0.002 -0.017,-0.006c-0.004,-0.004 -0.006,-0.01 -0.006,-0.017l0,-0.588l-0.192,0c-0.007,0 -0.012,-0.002 -0.017,-0.006c-0.004,-0.004 -0.006,-0.01 -0.006,-0.017l0,-0.042c-0,-0.007 0.002,-0.013 0.006,-0.017c0.004,-0.004 0.01,-0.006 0.017,-0.006l0.482,0c0.007,0 0.013,0.002 0.017,0.006c0.004,0.004 0.006,0.01 0.006,0.017l0,0.042c0,0.007 -0.002,0.012 -0.006,0.017c-0.004,0.004 -0.01,0.006 -0.017,0.006l-0.191,0l0,0.588c0,0.007 -0.002,0.012 -0.006,0.017c-0.004,0.004 -0.01,0.006 -0.017,0.006l-0.052,-0Z" style="fill:#fff;fill-rule:nonzero;"/></g><g transform="matrix(150.857965,0,0,150.857965,959.807067,477.647658)"><path d="M0.04,-0c-0.005,-0 -0.01,-0.002 -0.014,-0.006c-0.004,-0.004 -0.006,-0.009 -0.006,-0.014c0,-0.003 0.001,-0.007 0.002,-0.01l0.247,-0.647c0.003,-0.007 0.006,-0.012 0.011,-0.016c0.005,-0.004 0.012,-0.006 0.021,-0.006l0.068,0c0.009,0 0.016,0.002 0.021,0.006c0.005,0.004 0.009,0.01 0.011,0.016l0.247,0.647c0.001,0.004 0.002,0.007 0.002,0.01c0,0.005 -0.002,0.01 -0.006,0.014c-0.004,0.004 -0.009,0.006 -0.014,0.006l-0.051,-0c-0.008,-0 -0.014,-0.002 -0.017,-0.006c-0.004,-0.004 -0.006,-0.008 -0.008,-0.011l-0.055,-0.142l-0.328,0l-0.055,0.142c-0.001,0.003 -0.003,0.007 -0.007,0.011c-0.004,0.004 -0.01,0.006 -0.018,0.006l-0.051,-0Zm0.16,-0.245l0.27,0l-0.135,-0.355l-0.135,0.355Z" style="fill:#fff;fill-rule:nonzero;"/></g><g transform="matrix(150.857965,0,0,150.857965,1076.269415,477.647658)"><path d="M0.11,-0c-0.007,-0 -0.012,-0.002 -0.017,-0.006c-0.004,-0.004 -0.006,-0.01 -0.006,-0.017l0,-0.654c-0,-0.007 0.002,-0.012 0.006,-0.017c0.004,-0.004 0.01,-0.006 0.017,-0.006l0.053,0c0.007,0 0.012,0.002 0.017,0.006c0.004,0.004 0.006,0.01 0.006,0.017l0,0.59l0.332,-0c0.007,-0 0.013,0.002 0.017,0.006c0.004,0.004 0.006,0.01 0.006,0.017l0,0.041c0,0.007 -0.002,0.012 -0.006,0.017c-0.004,0.004 -0.01,0.006 -0.017,0.006l-0.408,-0Z" style="fill:#fff;fill-rule:nonzero;"/></g><g transform="matrix(150.857965,0,0,150.857965,1176.589962,477.647658)"></g><g transform="matrix(150.857965,0,0,150.857965,1228.937676,477.647658)"><path d="M0.11,-0c-0.007,-0 -0.012,-0.002 -0.017,-0.006c-0.004,-0.004 -0.006,-0.01 -0.006,-0.017l0,-0.653c-0,-0.007 0.002,-0.013 0.006,-0.017c0.004,-0.004 0.01,-0.006 0.017,-0.006l0.274,0c0.05,0 0.091,0.008 0.122,0.025c0.032,0.016 0.055,0.039 0.07,0.066c0.015,0.028 0.023,0.059 0.023,0.094c0,0.027 -0.004,0.051 -0.013,0.071c-0.009,0.02 -0.02,0.036 -0.034,0.048c-0.013,0.012 -0.027,0.022 -0.039,0.028c0.026,0.013 0.05,0.034 0.07,0.062c0.02,0.029 0.031,0.063 0.031,0.104c0,0.036 -0.008,0.07 -0.025,0.101c-0.017,0.031 -0.042,0.055 -0.075,0.074c-0.033,0.018 -0.074,0.028 -0.122,0.028l-0.282,-0Zm0.075,-0.081l0.194,0c0.043,0 0.076,-0.012 0.1,-0.035c0.023,-0.023 0.035,-0.052 0.035,-0.087c0,-0.035 -0.012,-0.064 -0.035,-0.087c-0.023,-0.023 -0.057,-0.034 -0.1,-0.034l-0.194,0l0,0.243Zm0,-0.323l0.184,0c0.043,0 0.075,-0.01 0.097,-0.03c0.022,-0.02 0.033,-0.047 0.033,-0.08c0,-0.034 -0.011,-0.06 -0.033,-0.078c-0.022,-0.018 -0.054,-0.027 -0.097,-0.027l-0.184,0l0,0.215Z" style="fill:#fff;fill-rule:nonzero;"/></g><g transform="matrix(150.857965,0,0,150.857965,1345.098308,477.647658)"><path d="M0.04,-0c-0.005,-0 -0.01,-0.002 -0.014,-0.006c-0.004,-0.004 -0.006,-0.009 -0.006,-0.014c0,-0.003 0.001,-0.007 0.002,-0.01l0.247,-0.647c0.003,-0.007 0.006,-0.012 0.011,-0.016c0.005,-0.004 0.012,-0.006 0.021,-0.006l0.068,0c0.009,0 0.016,0.002 0.021,0.006c0.005,0.004 0.009,0.01 0.011,0.016l0.247,0.647c0.001,0.004 0.002,0.007 0.002,0.01c0,0.005 -0.002,0.01 -0.006,0.014c-0.004,0.004 -0.009,0.006 -0.014,0.006l-0.051,-0c-0.008,-0 -0.014,-0.002 -0.017,-0.006c-0.004,-0.004 -0.006,-0.008 -0.008,-0.011l-0.055,-0.142l-0.328,0l-0.055,0.142c-0.001,0.003 -0.003,0.007 -0.007,0.011c-0.004,0.004 -0.01,0.006 -0.018,0.006l-0.051,-0Zm0.16,-0.245l0.27,0l-0.135,-0.355l-0.135,0.355Z" style="fill:#fff;fill-rule:nonzero;"/></g><g transform="matrix(150.857965,0,0,150.857965,1461.560657,477.647658)"><path d="M0.11,-0c-0.007,-0 -0.012,-0.002 -0.017,-0.006c-0.004,-0.004 -0.006,-0.01 -0.006,-0.017l0,-0.653c-0,-0.007 0.002,-0.013 0.006,-0.017c0.004,-0.004 0.01,-0.006 0.017,-0.006l0.047,0c0.008,0 0.014,0.002 0.018,0.006c0.004,0.004 0.006,0.007 0.007,0.008l0.332,0.51l0,-0.501c0,-0.007 0.002,-0.013 0.006,-0.017c0.004,-0.004 0.01,-0.006 0.017,-0.006l0.049,0c0.007,0 0.013,0.002 0.017,0.006c0.004,0.004 0.006,0.01 0.006,0.017l0,0.652c0,0.007 -0.002,0.012 -0.006,0.017c-0.004,0.005 -0.01,0.007 -0.017,0.007l-0.047,-0c-0.008,-0 -0.014,-0.002 -0.017,-0.006c-0.004,-0.004 -0.006,-0.007 -0.008,-0.008l-0.331,-0.504l0,0.496c0,0.007 -0.002,0.012 -0.006,0.017c-0.004,0.004 -0.01,0.006 -0.017,0.006l-0.049,-0Z" style="fill:#fff;fill-rule:nonzero;"/></g><g transform="matrix(150.857965,0,0,150.857965,1581.643597,477.647658)"><path d="M0.11,-0c-0.007,-0 -0.012,-0.002 -0.017,-0.006c-0.004,-0.004 -0.006,-0.01 -0.006,-0.017l0,-0.653c-0,-0.007 0.002,-0.013 0.006,-0.017c0.004,-0.004 0.01,-0.006 0.017,-0.006l0.05,0c0.007,0 0.013,0.002 0.017,0.006c0.004,0.004 0.006,0.01 0.006,0.017l0,0.248l0.267,-0.256c0.003,-0.003 0.007,-0.006 0.013,-0.01c0.006,-0.004 0.014,-0.006 0.025,-0.006l0.054,0c0.005,0 0.01,0.002 0.014,0.006c0.004,0.004 0.006,0.009 0.006,0.014c0,0.005 -0.002,0.009 -0.005,0.013l-0.309,0.302l0.329,0.331c0.004,0.004 0.005,0.008 0.005,0.013c0,0.005 -0.002,0.01 -0.006,0.014c-0.004,0.004 -0.009,0.006 -0.014,0.006l-0.057,-0c-0.011,-0 -0.02,-0.002 -0.026,-0.007c-0.006,-0.004 -0.01,-0.008 -0.013,-0.01l-0.286,-0.281l-0,0.275c0,0.007 -0.002,0.012 -0.006,0.017c-0.004,0.004 -0.01,0.006 -0.017,0.006l-0.05,-0Z" style="fill:#fff;fill-rule:nonzero;"/></g><g transform="matrix(150.857965,0,0,150.857965,1672.309234,477.647658)"></g><g transform="matrix(150.857965,0,0,150.857965,1724.656947,477.647658)"></g><g transform="matrix(150.857965,0,0,150.857965,1777.004661,477.647658)"></g><path d="M497.13,425.602l-142.273,0" style="fill:none;stroke:#fff;stroke-width:8.33px;"/><path d="M1841.408,425.602l-142.273,0" style="fill:none;stroke:#fff;stroke-width:8.33px;"/></svg>